<svg width="24" height="24" viewBox="0 0 24 24" fill="none" xmlns="http://www.w3.org/2000/svg">
<path fill-rule="evenodd" clip-rule="evenodd" d="M12 23.25C5.7868 23.25 0.75 18.2132 0.75 12C0.75 5.7868 5.7868 0.75 12 0.75C18.2132 0.75 23.25 5.7868 23.25 12C23.25 18.2132 18.2132 23.25 12 23.25ZM12 6C11.4477 6 11 6.44772 11 7C11 7.55228 11.4477 8 12 8H12.0125C12.5648 8 13.0125 7.55228 13.0125 7C13.0125 6.44772 12.5648 6 12.0125 6H12ZM10.125 11C9.57271 11 9.125 11.4477 9.125 12C9.125 12.5523 9.57271 13 10.125 13H11V17C11 17.5523 11.4477 18 12 18H14.5C15.0523 18 15.5 17.5523 15.5 17C15.5 16.4477 15.0523 16 14.5 16H13V12C13 11.4477 12.5523 11 12 11H10.125Z" fill="#FF0000"/>
</svg>
